<svg  width="332.101662800668" height="229.12695167061847" xmlns="http://www.w3.org/2000/svg" preserveAspectRatio="none" viewBox="5.94648126549472 6.0303183370124485 332.101662800668 229.12695167061847">
        <defs><linearGradient id="gr_94f741" x1="100%" y1="50%" x2="0%" y2="50%" gradientUnits="userSpaceOnUse"><stop offset="0%" stop-color="rgb(0, 156, 254)" /><stop offset="100%" stop-color="rgb(0, 249, 179)" /></linearGradient></defs>
        
        <path fill="url(#gr_94f741)"  fill-rule="nonzero" d="M331.12075674533844 179.05115568637848C331.12075674533844 179.05115568637848 220.34247529506683 21.534388661384583 220.34247529506683 21.534388661384583C209.12486565113068 5.583884954452515 187.09421467781067 1.7425217628479004 171.1355677843094 12.954505205154419C171.1355677843094 12.954505205154419 171.1355677843094 12.954505205154419 171.1355677843094 12.954505205154419C155.17699491977692 24.166488647460938 151.3336329460144 46.18596124649048 162.55139064788818 62.136464953422546C162.55139064788818 62.136464953422546 208.3294243812561 127.22880470752716 208.3294243812561 127.22880470752716C208.3294243812561 127.22880470752716 208.32046687602997 127.2350971698761 208.32046687602997 127.2350971698761C208.32046687602997 127.2350971698761 210.27061200141907 130.00800025463104 210.27061200141907 130.00800025463104C213.55779433250427 134.682115316391 212.43151760101318 141.13477635383606 207.75503361225128 144.4202560186386C203.29086470603943 147.55664134025574 197.21234607696533 146.66503643989563 193.80938243865967 142.51252949237823C193.80938243865967 142.51252949237823 145.63902854919434 74.01848459243774 145.63902854919434 74.01848459243774C134.42134487628937 58.06805491447449 112.39069390296936 54.22669172286987 96.43212103843689 65.43860113620758C96.43212103843689 65.43860113620758 96.43204700946808 65.43867516517639 96.43204700946808 65.43867516517639C81.52616608142853 75.91103518009186 77.1943609714508 95.81083631515503 85.82798945903778 111.3883820772171C85.82798945903778 111.3883820772171 85.80652105808258 111.40348398685455 85.80652105808258 111.40348398685455C85.80652105808258 111.40348398685455 85.92970526218414 111.57863652706146 85.92970526218414 111.57863652706146C86.51149892807007 112.6133394241333 87.1503689289093 113.62886881828308 87.84786987304688 114.62056088447571C87.84786987304688 114.62056088447571 88.69779646396637 115.82908380031586 88.69779646396637 115.82908380031586C90.73529577255249 120.27459740638733 89.3875983953476 125.67545485496521 85.2410877943039 128.58864283561707C80.9644342660904 131.59325659275055 75.20712733268738 130.89886486530304 71.73857402801514 127.18520164489746C71.73857402801514 127.18520164489746 70.66507995128632 125.65872430801392 70.66507995128632 125.65872430801392C70.14680314064026 124.92191398143768 69.59817445278168 124.21974921226501 69.03540623188019 123.53483319282532C69.03540623188019 123.53483319282532 68.87135803699493 123.30156791210175 68.87135803699493 123.30156791210175C68.87135803699493 123.30156791210175 68.85359108448029 123.314004778862 68.85359108448029 123.314004778862C57.20194959640503 109.36280143260956 36.60013175010681 106.44072997570038 21.45817244052887 117.07891488075256C21.45817244052887 117.07891488075256 21.45817244052887 117.07898890972137 21.45817244052887 117.07898890972137C5.499599575996399 128.29089832305908 1.6562376022338867 150.31044495105743 12.873921275138855 166.2609486579895C12.873921275138855 166.2609486579895 49.27389121055603 218.01837623119354 49.27389121055603 218.01837623119354C60.491574883461 233.96895396709442 82.522225856781 237.81024312973022 98.48072469234467 226.5982596874237C98.48072469234467 226.5982596874237 98.48079872131348 226.5981856584549 98.48079872131348 226.5981856584549C114.43929755687714 215.3862762451172 118.28265953063965 193.36672961711884 107.06497585773468 177.41622591018677C107.06497585773468 177.41622591018677 95.21871221065521 160.57182240486145 95.21871221065521 160.57182240486145C92.89708971977234 156.05227982997894 94.1928927898407 150.4028331041336 98.46947228908539 147.39821934700012C102.6160569190979 144.48495733737946 108.15675508975983 145.04631900787354 111.65188479423523 148.46778988838196C111.65188479423523 148.46778988838196 160.9066150188446 218.50363612174988 160.9066150188446 218.50363612174988C172.12429869174957 234.45413982868195 194.15494966506958 238.29557704925537 210.11344850063324 227.08351957798004C210.11344850063324 227.08351957798004 210.11352252960205 227.08351957798004 210.11352252960205 227.08351957798004C226.07216942310333 215.87153613567352 229.91538333892822 193.85198950767517 218.69777369499207 177.9015598297119C218.69777369499207 177.9015598297119 218.0573490858078 176.99100351333618 218.0573490858078 176.99100351333618C215.30051028728485 172.38462495803833 216.51924920082092 166.3662178516388 220.98334407806396 163.22983253002167C225.65990209579468 159.9442788362503 232.11582040786743 161.0698893070221 235.40300273895264 165.74407839775085C235.40300273895264 165.74407839775085 239.5680205821991 171.66639590263367 239.5680205821991 171.66639590263367C239.5680205821991 171.66639590263367 239.57697808742523 171.66010344028473 239.57697808742523 171.66010344028473C239.57697808742523 171.66010344028473 273.32952404022217 219.65323197841644 273.32952404022217 219.65323197841644C284.54720771312714 235.6037356853485 306.57785868644714 239.4450248479843 322.5364315509796 228.2331154346466C322.5364315509796 228.2331154346466 322.5365055799484 228.2331154346466 322.5365055799484 228.2331154346466C338.4950044155121 217.0211319923401 342.3383663892746 195.00165939331055 331.12075674533844 179.05115568637848 Z" />
    </svg>